<svg width="79" height="27" fill="none" xmlns="http://www.w3.org/2000/svg"><path fill-rule="evenodd" clip-rule="evenodd" d="M15.9 13.2h-3.5l1.2-1.2h6.1l-.9 1c-.1 0-.3.2-.3.5v5c-2.8.7-5.3 1.1-8.1 1.1C4.6 19.6 0 16 0 9.6 0 5.4 3.4 0 11 0c3.4 0 5.8 1 7.5 2.2l-2.6 2.5V3.2A7.7 7.7 0 0010.2 1C6 1 3 4.3 3 9c0 4.6 3.4 9.5 9.1 9.5 1.4 0 2.8-.2 3.9-.6v-4.7zm11.6-6.7c-4.3 0-7 3-7 6.3 0 2.7 2.2 6 6.5 6 4.2 0 6.7-3 6.7-6.3 0-3-2.5-6-6.2-6zm-.7 1c3 0 4.3 3.7 4.3 6.4 0 4-3.1 4.1-3.5 4.1-1.4 0-2.4-.8-3.1-1.9-.7-1-1.4-2.9-1.4-4.7 0-1.8.7-2.7 1.6-3.4.8-.5 1.6-.6 2-.6zm28.6-1c-3.6 0-5.5 2.4-5.5 5 0 2 1.4 4.3 4.2 4.3h.8l-.2 1c0 .7.2 1.1.7 1.7-4.9.4-6.9 2.4-6.9 4.6 0 2 1.8 3.9 5.6 3.9 4.4 0 6.8-2.6 6.8-5 0-1.9-.9-2.8-3-4.5-.7-.5-.8-.9-.8-1.3 0-.5.3-.9.4-1a4.8 4.8 0 01.7-.6C58.9 14 60 13 60 11c0-1.3-.6-2.4-1.7-3.4h1.4l1-1.2h-5.3zm-1 .9c.7 0 1.2.2 1.8.7.7.6 1.7 2.2 1.7 4.2 0 2.2-1.6 2.8-2.5 2.8-.4 0-1-.2-1.4-.5-1-.6-1.9-2.3-1.9-4.4 0-1.8 1-2.8 2.3-2.8zm2 12h-.5c-3.7 0-5 1.5-5 3.1 0 2 1.9 3.3 4.5 3.3 2.3 0 3.8-1.2 3.8-2.9 0-1.1-.7-1.8-1.8-2.7l-1-.8zm10.2-.6h-5.2l1-1c.1 0 .2-.2.2-.5V1.1h-1.7L62 0h4.5l-1 1s-.2.2-.2.5v15.6c0 .4.2.7.6.7l1.5.2-.8.8zm.8-6.4c0-3.7 3.2-5.9 6.1-5.9 3.2 0 4.5 1.7 5 3.3L70.1 13c.8 2.9 3.1 4.5 5.5 4.5 1.3 0 2.2-.4 3.3-.9a6.1 6.1 0 01-5 2.2 6.3 6.3 0 01-6.5-6.4zm8.3-2.8c0-1-1.1-2.2-2.7-2.2-1 0-3.2.7-3.2 3.5l.1 1.3 5.2-2c.4-.1.6-.3.6-.6zm-33.4-3c-4.3 0-7 3-7 6.2 0 2.7 2.2 6 6.5 6 4.2 0 6.7-3 6.7-6.3 0-3-2.5-6-6.2-6zm-.7.8c3 0 4.3 3.8 4.3 6.5 0 4-3.1 4.1-3.5 4.1-1.4 0-2.4-.8-3.1-1.9-.7-1-1.3-2.9-1.3-4.7 0-1.8.6-2.7 1.5-3.4.8-.5 1.6-.6 2-.6z" fill="#fff"/></svg>