<svg width="115" height="22" fill="none" xmlns="http://www.w3.org/2000/svg"><path fill-rule="evenodd" clip-rule="evenodd" d="M32.4 0H18.8L18 1.6c5.4.3 9.7 4.4 9.7 9.3 0 4.7-3.7 8.5-8.5 9.2l-.6 1.8h13.7c.8 0 1.5-.3 2-.9a3 3 0 00.9-2V3c0-1.7-1.3-3-2.9-3zm-25 11c0 4 3 7.6 7 9l-.8 1.9H3a3 3 0 01-2.9-3V3A3 3 0 012.9 0h11l-.6 2a10.9 10.9 0 00-5.9 9zM108 13.3h-6.3V22h6.3c2.2 0 2.4-2.2 2.4-3.5V16c0-1.5-.8-2.6-2.4-2.6zm.4 5.4v-2.5c0-.5-.3-1.1-.9-1.1h-3.9v5h3.8c.6 0 1-.7 1-1.4zm-9.4-.2c.4-.4.7-1 .7-2.5 0-1.8-1.2-2.8-2.6-2.8h-5.7V22h2v-2.5h3.3c.8 0 1.2.6 1.2 1V22h1.8v-1.8c0-.5-.1-1.3-.7-1.6zm-5.6-1h3.5c.8 0 1-.9 1-1.3s-.2-1.2-1.2-1.2h-3.3v2.6zM86 13.5h-2.6l-3.4 7.4V22h1.5l.7-1.6h5l.6 1.6h2l-3.8-8.6zM84.8 15L83 18.6h3.3L84.8 15zM71 22v-8.7h2v3.3h.8l3.4-3.3h2.6l-4.1 4.1 3.4 3.5v1h-1.4L74 18.5h-1V22h-2zm-10.4-2v-4.6c0-1 1-2 2-2h4.8c1.2 0 2 1.3 2 2v.8h-2c0-.4-.4-1-.7-1h-3.4c-.8 0-.7.8-.7.8v3.4c0 .6.4.8.6.8h3.4c.7 0 .8-.6.8-1h2v.8c0 1.2-1 2-2 2h-4.8c-1.4 0-2-1.2-2-2zM56 13.3h-2.6l-4 8.7h2.1l.7-1.6h5l.7 1.6h2l-4-8.7zM54.7 15L53 18.6h3.3L54.7 15zm-7.5-1.5H41V22h2v-2.4h4.2c1.2 0 2.5-.7 2.5-3.1 0-2.5-1.5-3.1-2.5-3.1zM43 17.8h3.7c.9 0 .9-1 .9-1.3 0-.4 0-1.3-1-1.3H43v2.6zM41 0v8.7h2V5.3h5v3.5h2V0h-2v3.4h-5V.1h-2zm12.4 0H60V2h-6v1.6h5v1.8h-5V7h6v1.8h-6.7c-.7 0-1.2-.6-1.2-1.2V1.4c0-.8.5-1.3 1.3-1.3zM76 .1v7.4c0 .6.5 1.3 1.4 1.3H83V7h-5.2V0h-2zM98.3 2v6.9h-2V1.9h-2.8V.1h7.7V2h-2.9zm9.2 6.9V1.9h2.9V.1h-7.8V2h2.9v6.9h2zM85.5 0h6.6V2h-6v1.6h5v1.8h-5V7h6v1.8h-6.7c-.8 0-1.2-.6-1.2-1.2V1.4c0-.8.4-1.3 1.3-1.3zm-15 8.7c-.6 0-1.1-.9-1.2-1.3l-1.5-4.6-1.9 5.9h-1.2c-.6 0-1-1-1.2-1.3L61.1 0h2l1.8 6 2-6h1.8l2 6 1.8-6h2l-2.8 8.7h-1.2zM113 0c.5 0 1 .2 1.4.5.4.4.5.9.5 1.4 0 .5-.2 1-.5 1.4-.4.4-.8.5-1.4.5-.5 0-1-.1-1.3-.5-.4-.4-.6-.9-.6-1.4 0-.5.2-1 .6-1.4.3-.3.8-.5 1.3-.5zm1.2 3c-.3.4-.7.6-1.2.6-.4 0-.8-.2-1.1-.5-.4-.3-.5-.7-.5-1.2s.1-.8.5-1.2c.3-.3.7-.5 1.1-.5.5 0 .9.2 1.2.5.3.4.5.7.5 1.2s-.2.9-.5 1.2zM15 0L10 14.7H12l2.6-7h.7c.4 0 .4.2.4.6l-2.3 6.4h2.3L18 8.2c.3-1.2-.4-1.7-1.7-1.7H15L17.3 0H15zm5 6.4h3.7c1 0 2.2.6 1.6 2.2l-1.7 4.6c-.3.9-.5 1.5-2.2 1.5h-2l-2.3 6.5H15l5.2-14.8zm3 1.7L21.5 13c0 .2-.2.6-.6.6h-1l2.1-6h1c.3 0 .3.3.2.6z" fill="#fff"/></svg>