<svg width="121" height="26" fill="none" xmlns="http://www.w3.org/2000/svg"><path fill-rule="evenodd" clip-rule="evenodd" d="M13.3 12.6H1V0h12.3v12.6zm106.8-.8V9.7h-2.5V6.4h-.1l-2.5.8v2.5h-3.8V8.3c0-.7.1-1.1.4-1.5.3-.3.7-.5 1.2-.5l1.1.3V4.4l-1.4-.2c-.7 0-1.4.2-2 .5-.6.3-1 .8-1.4 1.4-.3.6-.5 1.3-.5 2v1.6h-1.8v2h1.8v9h2.6v-9h3.8v5.8c0 2.3 1 3.5 3.2 3.5a5.2 5.2 0 002-.4v-2.2l-.2.1-.5.2a2 2 0 01-.5.1c-.5 0-.9-.1-1-.4-.3-.3-.4-.7-.4-1.4v-5.2h2.5zm-19 7c-1 0-1.8-.3-2.3-1a4 4 0 01-.8-2.6c0-1.1.3-2 .8-2.7.5-.6 1.3-1 2.2-1 .9 0 1.6.4 2.1 1s.8 1.5.8 2.7c0 1.2-.3 2-.7 2.7-.5.6-1.2 1-2.2 1zM96.8 11c1-1 2.4-1.6 4.2-1.6 1.7 0 3 .5 4 1.5s1.4 2.4 1.4 4.2a6 6 0 01-1.5 4.3c-1 1-2.4 1.6-4.1 1.6-1.7 0-3-.5-4-1.6-1-1-1.5-2.4-1.5-4a6 6 0 011.5-4.4zm-5.7-1.6c-1.2 0-2.2.3-3 1a3 3 0 00-1.1 2.4c0 .5 0 1 .2 1.4.2.4.4.7.8 1 .3.3.9.6 1.6.9l1.3.6.5.5.2.6c0 .7-.5 1.1-1.7 1.1-.4 0-.9 0-1.4-.3-.5-.1-1-.4-1.4-.7H87v2.4c.4.2.8.4 1.4.5l1.4.2c1.4 0 2.4-.4 3.2-1a3 3 0 001.2-2.5 3 3 0 00-.7-1.9c-.4-.5-1.1-1-2.1-1.4-.8-.3-1.3-.6-1.5-.8-.2-.2-.3-.5-.3-.8 0-.3 0-.6.3-.8.3-.2.7-.3 1.1-.3a4.4 4.4 0 012.5.7h.1V10l-1.2-.4a7 7 0 00-1.3 0zm-13 8.5c.5.6 1.2 1 2.1 1 1 0 1.7-.4 2.2-1 .5-.6.7-1.5.7-2.7 0-1.2-.3-2.1-.8-2.7-.5-.6-1.2-1-2-1-1 0-1.7.4-2.3 1-.5.6-.7 1.6-.7 2.7 0 1.2.2 2 .7 2.7zm2.3-8.5c-1.8 0-3.3.5-4.3 1.6a6 6 0 00-1.5 4.3c0 1.7.5 3.1 1.5 4.1 1 1 2.3 1.6 4 1.6 1.7 0 3.1-.6 4.1-1.6A6 6 0 0086 15c0-1.8-.5-3.2-1.5-4.2s-2.3-1.5-4-1.5zm-9.7.3v1.9c.3-.6.6-1.1 1-1.5.5-.4 1-.6 1.7-.6l1 .1v2.7-.1a3 3 0 00-1.4-.4 2 2 0 00-1.7 1 4 4 0 00-.6 2.3v5.6h-2.6v-11h2.6zm-7.1-.3c-1.2 0-2.2.3-3.1.8a5 5 0 00-2 2.1 6.9 6.9 0 00-.1 6c.5.9 1.1 1.5 2 2 .7.4 1.7.7 2.7.7a6 6 0 003-.8h.1v-2.4l-.1.1a4.8 4.8 0 01-2.5 1c-1 0-1.8-.4-2.4-1-.5-.7-.8-1.5-.8-2.6 0-1.2.3-2 .9-2.7.6-.7 1.4-1 2.4-1a4 4 0 012.4.8l.1.1V10L65 9.6a7 7 0 00-1.4-.2zm-10.2.3h2.6v11h-2.6v-11zM54.8 5a1.5 1.5 0 00-1.5 1.5c0 .4.1.8.4 1 .3.3.7.5 1.1.5.4 0 .8-.2 1.1-.4.3-.3.5-.7.5-1.1 0-.4-.2-.8-.5-1-.3-.4-.6-.5-1-.5zm-6.4 15.7V8.9l-4.7 11.8H42L37.2 8.9v11.8h-2.5V5.3h3.7L43 16.7l4.5-11.4H51v15.4h-2.6zm-34.3-8.1h12.4V0H14v12.6zM13.3 26H1V13.4h12.3V26zm.8 0h12.4V13.4H14V26z" fill="#fff"/></svg>