<svg width="114" height="23" fill="none" xmlns="http://www.w3.org/2000/svg"><path fill-rule="evenodd" clip-rule="evenodd" d="M12.4.3V3h.6c7.3-.2 12 6 12 6s-5.4 6.6-11 6.6h-1.5v1.7h1.2c5.3 0 9-2.6 12.8-5.8l1.6 1c.9.4 1.8.9 2 1.2A31.8 31.8 0 0112.5 19v2.5h20V.3h-20zm0 6.3V4.7h.6c5.3-.2 8.7 4.5 8.7 4.5S18 14.4 14 14.4l-1.5-.3V8.3c1.9.2 2.4 1 3.4 2.8l.2.4L19 9.2s-2-2.6-5.4-2.6a8 8 0 00-1 0zm0 0v1.7c-2-.3-3.6 1.6-3.6 1.6s.9 3.3 3.6 4.2v1.5c-4.8-.8-6.2-6-6.2-6s2.3-2.6 6.2-3zm0-1.9c-5.7.5-8.6 4.7-8.6 4.7s2.2 7.2 8.6 8V19C3.6 18.2.4 9.1.4 9.1s5.6-5.4 12-6v1.6zm26-.3v13.9h3.9V7.5h3.1c1 0 1.7.2 2.2.7.7.7 1 1.8 1 3.7v6.4h3.8v-7.7c0-5.5-3.5-6.2-7-6.2h-7zm31 0v13.9h4v-14h-4zm6.4 13.9v-14h5.5c3.2 0 5.3.5 6.8 2.4.8 1 1.2 2.8 1.2 4.8 0 2.1-.5 4-1.4 5-1.2 1.2-2.3 1.8-5.7 1.8h-6.4zm4-10.9h1.6c2.5 0 4 1 4 4 0 2.8-1.5 3.9-4 3.9h-1.7V7.4zm-19.4 8l3.3-11h4l-4.5 13.9h-5.7L53 4.3h4.3l3.1 11zm30.8 2.9h4v-14h-4v14zm5.6 0l5.5-14h5.3l5.5 14H109l-.8-2.5h-6.6l-.8 2.5h-4zm8-11.4l2.5 6.5h-5L105 7z" fill="#fff"/></svg>