<svg width="109" height="15" fill="none" xmlns="http://www.w3.org/2000/svg"><path fill-rule="evenodd" clip-rule="evenodd" d="M47 9.3h7.1l-3.7-6-7 10.8h-3l8.3-13a2 2 0 011.7-.8A2 2 0 0152 1l8.4 13h-3.1l-1.5-2.4h-7.2L47 9.3zm32.6 2.4V.4H77v12.4c0 .3.1.7.4 1 .2.2.6.3 1 .3h12l1.6-2.4H79.6zM40.2 5c0 2.6-2 4.7-4.6 4.7h-1.3l5.4 4.4h-3.9l-8-6.9h7.6a2.2 2.2 0 100-4.4h-8.8v11.3h-2.7V.4h11.7c2.5 0 4.6 2 4.6 4.6zM7.5 14.1c-3.8 0-7-3-7-6.8s3.2-7 7-7h8c3.9 0 7 3.2 7 7 0 3.7-3.1 6.8-7 6.8h-8zM20 7.3c0 2.4-2 4.4-4.5 4.4H7.7c-2.5 0-4.5-2-4.5-4.4 0-2.5 2-4.5 4.5-4.5h7.7c2.5 0 4.5 2 4.5 4.5zm46 6.8c-3.8 0-6.9-3-6.9-6.8s3.1-7 7-7h9.5L74 2.9H66a4.5 4.5 0 000 8.9h9.7L74.2 14H66zm28.3-5.6a4.5 4.5 0 004.3 3.2h9.6l-1.5 2.4h-8.2c-3.9 0-7-3-7-6.8s3.1-7 7-7h9.5l-1.5 2.5h-7.9c-2 0-3.7 1.4-4.3 3.2h13l-1.6 2.5H94.2z" fill="#fff"/></svg>