<svg width="107" height="16" fill="none" xmlns="http://www.w3.org/2000/svg"><path fill-rule="evenodd" clip-rule="evenodd" d="M2.8 3.7A3.9 3.9 0 010 1h17.3a4 4 0 01-2.8 2.8h-4.3l-.2.1v11.3H7.3V3.8H2.8zm23.9 0h10.2c1.5-.2 2.6-1.6 2.8-2.8H23.8a4 4 0 002.9 2.8zm76.5 0H93A4 4 0 0190.2 1H106c-.3 1.2-1.3 2.6-2.8 2.8zM90.6 15.1V6.5h15v8.6H103V9.4h-9.7V15h-2.7zm-8.1 0a4 4 0 002.3-2.8h-12V1h-2.7v14.2h12.4zM59.6 3.7h-9.5v2.8h12.4v8.6H46.7c.6-1.3 2-2.4 3.5-2.8h9.6v-3H47.5V1h15c-.2 1.2-1.4 2.4-2.9 2.8zM37 9.4H26.7a4 4 0 01-2.9-3h16c-.3 1.3-1.4 2.7-2.9 3zM26.7 15h10.2c1.5-.2 2.6-1.6 2.8-2.8H23.8c.3 1.2 1.4 2.6 2.9 2.8z" fill="#fff"/></svg>